<svg xmlns="http://www.w3.org/2000/svg" width="1000" height="340" viewBox="0 0 1000 340">
<defs>
  <radialGradient id="bg" cx="50%" cy="36%" r="70%">
    <stop offset="0%" stop-color="#1a0a35"/>
    <stop offset="60%" stop-color="#0a0414"/>
    <stop offset="100%" stop-color="#030108"/>
  </radialGradient>
  <radialGradient id="eg" cx="50%" cy="50%" r="50%">
    <stop offset="0%" stop-color="#00ffff" stop-opacity="0.35"/>
    <stop offset="100%" stop-color="#00ffff" stop-opacity="0"/>
  </radialGradient>
  <filter id="gf" x="-80%" y="-80%" width="260%" height="260%">
    <feGaussianBlur in="SourceGraphic" stdDeviation="18"/>
  </filter>
  <pattern id="grd" width="48" height="48" patternUnits="userSpaceOnUse">
    <path d="M 48 0 L 0 0 0 48" fill="none" stroke="#a855f7" stroke-width="0.3" opacity="0.02"/>
  </pattern>
  <style>
    @keyframes fp {0%,100%{opacity:0.2}50%{opacity:0.4}}
    @keyframes g1 {0%,92%,100%{transform:translate(0,0);opacity:0.1}94%{transform:translate(3px,0);opacity:0.2}96%{transform:translate(-2px,0);opacity:0.07}98%{transform:translate(1px,0);opacity:0.15}}
    @keyframes g2 {0%,88%,100%{transform:translate(0,0);opacity:0.08}90%{transform:translate(-4px,1px);opacity:0.18}92%{transform:translate(2px,-1px);opacity:0.05}95%{transform:translate(-1px,0);opacity:0.14}}
    @keyframes ep {0%,100%{transform:scale(1);opacity:0.15}50%{transform:scale(1.15);opacity:0.3}}
    @keyframes egl {0%,100%{transform:scale(1);opacity:0.85}50%{transform:scale(1.12);opacity:1}}
    @keyframes fk {0%,100%{opacity:1}50%{opacity:0.96}}
    @keyframes tg {0%,100%{opacity:0.7}50%{opacity:1}}
    .fk{animation:fk 0.08s infinite}
    .ep{animation:ep 2.2s ease-in-out infinite;transform-origin:center}
    .egl{animation:egl 2.2s ease-in-out infinite;transform-origin:center}
    .tg{animation:tg 3s ease-in-out infinite}
  </style>
</defs>
<rect width="1000" height="340" fill="url(#bg)"/>
<circle class="fk" cx="331" cy="77" r="1.0228531844757796" fill="#fff" opacity="0.3579293985692694"/>
<circle class="fk" cx="49" cy="37" r="0.5483487807200832" fill="#fff" opacity="0.5285097167965234"/>
<circle class="fk" cx="96" cy="187" r="0.7695124405695986" fill="#fff" opacity="0.43311520236134204"/>
<circle class="fk" cx="931" cy="259" r="0.8296639454864224" fill="#fff" opacity="0.2858792723342647"/>
<circle class="fk" cx="88" cy="222" r="1.0300302958649075" fill="#fff" opacity="0.36726886054830377"/>
<circle class="fk" cx="246" cy="46" r="0.9915679027014448" fill="#fff" opacity="0.42041890151655426"/>
<circle class="fk" cx="60" cy="289" r="1.018390681819109" fill="#fff" opacity="0.24952078445985826"/>
<circle class="fk" cx="228" cy="322" r="0.6670526387083383" fill="#fff" opacity="0.4509732889622357"/>
<circle class="fk" cx="970" cy="31" r="0.7491779103270191" fill="#fff" opacity="0.43084117944699946"/>
<circle class="fk" cx="406" cy="25" r="0.7152626991989749" fill="#fff" opacity="0.5905020422371681"/>
<circle class="fk" cx="47" cy="285" r="1.0305156963189301" fill="#fff" opacity="0.5433873836194718"/>
<circle class="fk" cx="296" cy="214" r="1.0746387223783946" fill="#fff" opacity="0.25770203334297503"/>
<circle class="fk" cx="120" cy="292" r="0.5905525434746653" fill="#fff" opacity="0.32339272964077376"/>
<circle class="fk" cx="835" cy="92" r="0.6057306370942221" fill="#fff" opacity="0.24122228497743656"/>
<circle class="fk" cx="584" cy="327" r="0.6391741200917215" fill="#fff" opacity="0.2751484107148574"/>
<circle class="fk" cx="99" cy="280" r="0.6400016502085166" fill="#fff" opacity="0.4848443062984614"/>
<circle class="fk" cx="577" cy="30" r="0.7909776382048139" fill="#fff" opacity="0.44760383726942155"/>
<circle class="fk" cx="508" cy="272" r="0.8534741022393534" fill="#fff" opacity="0.37103692226776114"/>
<circle class="fk" cx="321" cy="238" r="0.6576479715791228" fill="#fff" opacity="0.43422474540305545"/>
<circle class="fk" cx="464" cy="185" r="0.5024561620310384" fill="#fff" opacity="0.31990679874547295"/>
<circle class="fk" cx="813" cy="92" r="0.7513679006751968" fill="#fff" opacity="0.47959777349182847"/>
<circle class="fk" cx="249" cy="41" r="0.7215521437368352" fill="#fff" opacity="0.4297694841034684"/>
<circle class="fk" cx="537" cy="253" r="0.8398047342238352" fill="#fff" opacity="0.5500549982293715"/>
<circle class="fk" cx="746" cy="229" r="1.0718587553150571" fill="#fff" opacity="0.3151751059560746"/>
<circle class="fk" cx="74" cy="60" r="0.9142961942815867" fill="#fff" opacity="0.4047731322590197"/>
<circle class="fk" cx="168" cy="175" r="0.809294859842467" fill="#fff" opacity="0.2607938138642019"/>
<circle class="fk" cx="500" cy="215" r="0.8705556496454766" fill="#fff" opacity="0.21568290281897506"/>
<circle class="fk" cx="684" cy="39" r="0.9057200494697009" fill="#fff" opacity="0.5058283464851252"/>
<circle class="fk" cx="586" cy="160" r="0.5323957359342741" fill="#fff" opacity="0.3360489448764782"/>
<circle class="fk" cx="358" cy="304" r="1.0397198060347712" fill="#fff" opacity="0.39866991811959507"/>
<circle class="fk" cx="816" cy="233" r="0.9679816944236437" fill="#fff" opacity="0.22750517976274423"/>
<circle class="fk" cx="95" cy="138" r="1.0247079104806858" fill="#fff" opacity="0.38963933496785774"/>
<circle class="fk" cx="680" cy="33" r="0.9787238727179396" fill="#fff" opacity="0.2242677710388879"/>
<circle class="fk" cx="718" cy="158" r="0.7354273441347612" fill="#fff" opacity="0.4588515418110675"/>
<circle class="fk" cx="697" cy="228" r="0.7393872993921637" fill="#fff" opacity="0.31383821283765967"/>
<circle class="fk" cx="395" cy="177" r="0.5621222562261946" fill="#fff" opacity="0.20902517122223543"/>
<circle class="fk" cx="472" cy="181" r="0.8805737394114255" fill="#fff" opacity="0.26721935156261784"/>
<circle class="fk" cx="119" cy="252" r="0.5373486929712126" fill="#fff" opacity="0.22358176773252417"/>
<circle class="fk" cx="786" cy="147" r="0.540408569505815" fill="#fff" opacity="0.25173608880747367"/>
<circle class="fk" cx="253" cy="203" r="0.6252579112676987" fill="#fff" opacity="0.35637988125329084"/>
<rect width="1000" height="340" fill="url(#grd)"/>
<circle class="ep fk" cx="500" cy="124" r="90" fill="url(#eg)"/>
<rect class="fk" x="420" y="32" width="19" height="19" fill="#a855f7" opacity="0.5" rx="1.5"/>
<rect class="fk" x="440" y="32" width="19" height="19" fill="#a855f7" opacity="0.5" rx="1.5"/>
<rect class="fk" x="480" y="32" width="19" height="19" fill="#a855f7" opacity="0.5" rx="1.5"/>
<rect class="fk" x="520" y="32" width="19" height="19" fill="#a855f7" opacity="0.5" rx="1.5"/>
<rect class="fk" x="540" y="32" width="19" height="19" fill="#a855f7" opacity="0.5" rx="1.5"/>
<rect class="fk" x="400" y="52" width="19" height="19" fill="#a855f7" opacity="0.5" rx="1.5"/>
<rect class="fk" x="420" y="52" width="19" height="19" fill="#a855f7" opacity="0.5" rx="1.5"/>
<rect class="fk" x="440" y="52" width="19" height="19" fill="#a855f7" opacity="0.5" rx="1.5"/>
<rect class="fk" x="460" y="52" width="19" height="19" fill="#a855f7" opacity="0.5" rx="1.5"/>
<rect class="fk" x="480" y="52" width="19" height="19" fill="#a855f7" opacity="0.5" rx="1.5"/>
<rect class="fk" x="500" y="52" width="19" height="19" fill="#a855f7" opacity="0.5" rx="1.5"/>
<rect class="fk" x="520" y="52" width="19" height="19" fill="#a855f7" opacity="0.5" rx="1.5"/>
<rect class="fk" x="540" y="52" width="19" height="19" fill="#a855f7" opacity="0.5" rx="1.5"/>
<rect class="fk" x="560" y="52" width="19" height="19" fill="#a855f7" opacity="0.5" rx="1.5"/>
<rect class="fk" x="380" y="72" width="19" height="19" fill="#e2e8f0" opacity="0.85" rx="1.5"/>
<rect class="fk" x="400" y="72" width="19" height="19" fill="#e2e8f0" opacity="0.85" rx="1.5"/>
<rect class="fk" x="460" y="72" width="19" height="19" fill="#e2e8f0" opacity="0.85" rx="1.5"/>
<rect class="fk" x="480" y="72" width="19" height="19" fill="#e2e8f0" opacity="0.85" rx="1.5"/>
<rect class="fk" x="500" y="72" width="19" height="19" fill="#e2e8f0" opacity="0.85" rx="1.5"/>
<rect class="fk" x="560" y="72" width="19" height="19" fill="#e2e8f0" opacity="0.85" rx="1.5"/>
<rect class="fk" x="580" y="72" width="19" height="19" fill="#e2e8f0" opacity="0.85" rx="1.5"/>
<rect class="fk" x="380" y="92" width="19" height="19" fill="#e2e8f0" opacity="0.85" rx="1.5"/>
<rect class="fk" x="420" y="92" width="19" height="19" fill="#00ffff" opacity="1" rx="1.5"/>
<rect class="fk" x="460" y="92" width="19" height="19" fill="#e2e8f0" opacity="0.85" rx="1.5"/>
<rect class="fk" x="480" y="92" width="19" height="19" fill="#e2e8f0" opacity="0.85" rx="1.5"/>
<rect class="fk" x="500" y="92" width="19" height="19" fill="#e2e8f0" opacity="0.85" rx="1.5"/>
<rect class="fk" x="540" y="92" width="19" height="19" fill="#00ffff" opacity="1" rx="1.5"/>
<rect class="fk" x="580" y="92" width="19" height="19" fill="#e2e8f0" opacity="0.85" rx="1.5"/>
<rect class="fk" x="360" y="112" width="19" height="19" fill="#c084fc" opacity="0.65" rx="1.5"/>
<rect class="fk" x="380" y="112" width="19" height="19" fill="#c084fc" opacity="0.65" rx="1.5"/>
<rect class="fk" x="420" y="112" width="19" height="19" fill="#fff" opacity="0.9" rx="1.5"/>
<rect class="fk" x="460" y="112" width="19" height="19" fill="#c084fc" opacity="0.65" rx="1.5"/>
<rect class="fk" x="500" y="112" width="19" height="19" fill="#c084fc" opacity="0.65" rx="1.5"/>
<rect class="fk" x="540" y="112" width="19" height="19" fill="#fff" opacity="0.9" rx="1.5"/>
<rect class="fk" x="580" y="112" width="19" height="19" fill="#c084fc" opacity="0.65" rx="1.5"/>
<rect class="fk" x="600" y="112" width="19" height="19" fill="#c084fc" opacity="0.65" rx="1.5"/>
<rect class="fk" x="380" y="132" width="19" height="19" fill="#e2e8f0" opacity="0.85" rx="1.5"/>
<rect class="fk" x="400" y="132" width="19" height="19" fill="#e2e8f0" opacity="0.85" rx="1.5"/>
<rect class="fk" x="460" y="132" width="19" height="19" fill="#e2e8f0" opacity="0.85" rx="1.5"/>
<rect class="fk" x="480" y="132" width="19" height="19" fill="#e2e8f0" opacity="0.85" rx="1.5"/>
<rect class="fk" x="500" y="132" width="19" height="19" fill="#e2e8f0" opacity="0.85" rx="1.5"/>
<rect class="fk" x="560" y="132" width="19" height="19" fill="#e2e8f0" opacity="0.85" rx="1.5"/>
<rect class="fk" x="580" y="132" width="19" height="19" fill="#e2e8f0" opacity="0.85" rx="1.5"/>
<rect class="fk" x="400" y="152" width="19" height="19" fill="#e2e8f0" opacity="0.85" rx="1.5"/>
<rect class="fk" x="420" y="152" width="19" height="19" fill="#e2e8f0" opacity="0.85" rx="1.5"/>
<rect class="fk" x="440" y="152" width="19" height="19" fill="#e2e8f0" opacity="0.85" rx="1.5"/>
<rect class="fk" x="460" y="152" width="19" height="19" fill="#e2e8f0" opacity="0.85" rx="1.5"/>
<rect class="fk" x="480" y="152" width="19" height="19" fill="#e2e8f0" opacity="0.85" rx="1.5"/>
<rect class="fk" x="500" y="152" width="19" height="19" fill="#e2e8f0" opacity="0.85" rx="1.5"/>
<rect class="fk" x="520" y="152" width="19" height="19" fill="#e2e8f0" opacity="0.85" rx="1.5"/>
<rect class="fk" x="540" y="152" width="19" height="19" fill="#e2e8f0" opacity="0.85" rx="1.5"/>
<rect class="fk" x="560" y="152" width="19" height="19" fill="#e2e8f0" opacity="0.85" rx="1.5"/>
<rect class="fk" x="420" y="172" width="19" height="19" fill="#00ffff" opacity="0.5" rx="1.5"/>
<rect class="fk" x="460" y="172" width="19" height="19" fill="#9ca3af" opacity="0.55" rx="1.5"/>
<rect class="fk" x="480" y="172" width="19" height="19" fill="#9ca3af" opacity="0.55" rx="1.5"/>
<rect class="fk" x="500" y="172" width="19" height="19" fill="#00ffff" opacity="0.5" rx="1.5"/>
<rect class="fk" x="540" y="172" width="19" height="19" fill="#9ca3af" opacity="0.55" rx="1.5"/>
<rect class="fk" x="420" y="192" width="19" height="19" fill="#00ffff" opacity="0.5" rx="1.5"/>
<rect class="fk" x="540" y="192" width="19" height="19" fill="#9ca3af" opacity="0.55" rx="1.5"/>
<rect class="fk" x="420" y="212" width="19" height="19" fill="#00ffff" opacity="0.5" rx="1.5"/>
<rect class="fk" x="460" y="212" width="19" height="19" fill="#9ca3af" opacity="0.55" rx="1.5"/>
<rect class="fk" x="480" y="212" width="19" height="19" fill="#9ca3af" opacity="0.55" rx="1.5"/>
<rect class="fk" x="500" y="212" width="19" height="19" fill="#00ffff" opacity="0.5" rx="1.5"/>
<rect class="fk" x="540" y="212" width="19" height="19" fill="#9ca3af" opacity="0.55" rx="1.5"/>
<circle class="ep" cx="400" cy="102" r="28" fill="#00ffff" filter="url(#gf)"/>
<circle class="egl" cx="400" cy="102" r="8" fill="#fff"/>
<circle class="egl" cx="400" cy="102" r="3" fill="#00ffff"/>
<circle class="ep" cx="540" cy="102" r="28" fill="#00ffff" filter="url(#gf)"/>
<circle class="egl" cx="540" cy="102" r="8" fill="#fff"/>
<circle class="egl" cx="540" cy="102" r="3" fill="#00ffff"/>
<rect class="fk" x="354" y="74" width="292" height="3" fill="#fff" opacity="0.08" style="animation:g1 1.8s infinite"/>
<rect class="fk" x="354" y="81" width="292" height="2" fill="#a855f7" opacity="0.05" style="animation:g2 2.0s infinite"/>
<rect class="fk" x="354" y="116" width="292" height="3" fill="#fff" opacity="0.08" style="animation:g1 2.1s infinite"/>
<rect class="fk" x="354" y="123" width="292" height="2" fill="#a855f7" opacity="0.05" style="animation:g2 2.4s infinite"/>
<rect class="fk" x="354" y="172" width="292" height="3" fill="#fff" opacity="0.08" style="animation:g1 2.4s infinite"/>
<rect class="fk" x="354" y="179" width="292" height="2" fill="#a855f7" opacity="0.05" style="animation:g2 2.8s infinite"/>
<g class="fk">
  <pattern id="scn" width="4" height="4" patternUnits="userSpaceOnUse">
    <rect width="4" height="1" fill="#000" opacity="0.05"/>
  </pattern>
  <rect width="1000" height="340" fill="url(#scn)"/>
</g>
<text x="500" y="260" font-family="'JetBrains Mono','Courier New',monospace" font-size="26" fill="#e9d5ff" text-anchor="middle" font-weight="800" letter-spacing="10">ERFIX_404</text>
<text class="tg" x="500" y="288" font-family="'Courier New',monospace" font-size="14" fill="#a855f7" text-anchor="middle" letter-spacing="6">AUTONOMOUS ARCHITECT</text>
<text x="305" y="314" font-family="'Courier New',monospace" font-size="12" fill="#a855f7" text-anchor="middle" opacity="0.8" style="animation:tg 2.5s ease-in-out infinite;animation-delay:0.0s">python</text>
<text x="435" y="314" font-family="'Courier New',monospace" font-size="12" fill="#a855f7" text-anchor="middle" opacity="0.8" style="animation:tg 2.71s ease-in-out infinite;animation-delay:0.7s">ai agents</text>
<text x="565" y="314" font-family="'Courier New',monospace" font-size="12" fill="#a855f7" text-anchor="middle" opacity="0.8" style="animation:tg 2.92s ease-in-out infinite;animation-delay:1.4s">n8n</text>
<text x="695" y="314" font-family="'Courier New',monospace" font-size="12" fill="#a855f7" text-anchor="middle" opacity="0.8" style="animation:tg 3.13s ease-in-out infinite;animation-delay:2.0999999999999996s">vibe code</text>
<line x1="0" y1="334" x2="1000" y2="334" stroke="#222" stroke-width="1"/>
<text x="985" y="328" font-family="'Courier New',monospace" font-size="8" fill="#777" text-anchor="end" letter-spacing="2" font-weight="bold">SENTINEL X</text>
</svg>